<svg xmlns="http://www.w3.org/2000/svg" width="800px" height="800px" viewBox="0 0 24 24">
 <defs>
  <style>.cls-1{fill:none;stroke:#020202;stroke-miterlimit:10;stroke-width:1.91px;}</style>
 </defs>
 <g class="layer">
  <title>Layer 1</title>
  <g id="heartrate">
   <path class="cls-1" d="m14.86,13l-0.95,0l-1,-1.91l-1.9,3.82l-1.87,-4.8l-1.91,2.89l-3.82,0l-0.33,-0.33a5.4,5.4 0 1 1 7.64,-7.67l1.28,1.3l1.28,-1.3a5.4,5.4 0 1 1 7.64,7.63l-0.33,0.33l-8.59,8.61l-5.93,-5.93" id="svg_1"/>
   <line class="cls-1" id="svg_2" x1="15.82" x2="17.73" y1="12.98" y2="12.98"/>
  </g>
  <line fill="none" id="svg_5" stroke="#000000" stroke-linecap="round" stroke-width="2.5" transform="matrix(1 0 0 1 0 0)" x1="5.51" x2="21.63" y1="1.73" y2="19.74"/>
  <line fill="none" id="svg_7" stroke="#ffffff" stroke-linecap="round" stroke-width="1.5" x1="7.5" x2="23.02" y1="0.94" y2="18.3"/>
 </g>
</svg>