<?xml version="1.0" encoding="UTF-8"?>
<svg xmlns="http://www.w3.org/2000/svg" xmlns:xlink="http://www.w3.org/1999/xlink" width="300px" height="300px" viewBox="0 0 300 300" version="1.1">
<g id="surface1">
<path style="fill:none;stroke-width:1.5;stroke-linecap:round;stroke-linejoin:round;stroke:rgb(16.078432%,17.647059%,19.607843%);stroke-opacity:1;stroke-miterlimit:4;" d="M 8.97 22 L 14.97 22 C 19.97 22 21.97 20 21.97 15 L 21.97 9 C 21.97 4 19.97 2 14.97 2 L 8.97 2 C 3.97 2 1.97 4 1.97 9 L 1.97 15 C 1.97 20 3.97 22 8.97 22 Z M 8.97 22 " transform="matrix(12.5,0,0,12.5,0,0)"/>
<path style="fill:none;stroke-width:1.5;stroke-linecap:round;stroke-linejoin:round;stroke:rgb(16.078432%,17.647059%,19.607843%);stroke-opacity:1;stroke-miterlimit:4;" d="M 1.97 12.7 L 7.97 12.68 C 8.72 12.68 9.56 13.25 9.84 13.95 L 10.98 16.83 C 11.24 17.48 11.65 17.48 11.91 16.83 L 14.2 11.02 C 14.42 10.46 14.83 10.44 15.11 10.97 L 16.15 12.94 C 16.46 13.53 17.26 14.01 17.92 14.01 L 21.98 14.01 " transform="matrix(12.5,0,0,12.5,0,0)"/>
</g>
</svg>
